<?xml version="1.0" encoding="utf-8"?>
<!-- Generator: Adobe Illustrator 21.0.0, SVG Export Plug-In . SVG Version: 6.00 Build 0)  -->
<svg version="1.1" xmlns="http://www.w3.org/2000/svg" xmlns:xlink="http://www.w3.org/1999/xlink" x="0px" y="0px"
	 viewBox="0 0 1400 980" enable-background="new 0 0 1400 980" xml:space="preserve">
<g id="Layer_1">
	<rect fill="#11123B" width="1400" height="980"/>
	
		<rect x="435.727" y="205.727" transform="matrix(0.7071 0.7071 -0.7071 0.7071 537.3654 -357.3149)" fill="#0D0E2C" width="528.547" height="528.547"/>
</g>
<g id="Layer_2">
	<g>
		<g>
			<polygon fill="#F4BB3A" points="713.423,224.542 582.423,440.017 713.423,548.293 			"/>
			<polygon fill="#ED7C31" points="582.423,440.017 713.423,426.826 713.423,548.293 			"/>
			<polygon fill="#F09B36" points="713.423,224.542 844.423,440.017 713.423,548.293 			"/>
			<polygon fill="#D6562B" points="844.423,440.017 713.423,426.826 713.423,548.293 			"/>
			<polygon fill="#F4BB3A" points="582.423,463.96 713.423,577.918 713.423,691.876 			"/>
			<polygon fill="#ED7C31" points="844.423,463.96 713.423,577.918 713.423,691.876 			"/>
		</g>
		<g>
			<path fill="#ED7C31" d="M618.156,95.167v38.801h10.773c0-0.001,0-0.002,0-0.003c0-1.245,1.019-2.264,2.264-2.264h22.951
				c1.245,0,2.264,1.019,2.264,2.264c0,0.001,0,0.002,0,0.003h43.248V95.167h-26.542H618.156z M644.073,105.471
				c-4.892,0-9.784,0-14.676,0c-2.415,0-2.411-3.747,0-3.747c4.892,0,9.784,0,14.676,0
				C646.488,101.724,646.484,105.471,644.073,105.471z M653.441,105.471c-2.415,0-2.411-3.747,0-3.747
				C655.856,101.724,655.852,105.471,653.441,105.471z"/>
			<path fill="#F4BB3A" d="M697.079,85.643h-21.39c-1.423,0-2.576,1.153-2.576,2.576v6.948h26.542v-6.948
				C699.656,86.796,698.502,85.643,697.079,85.643z"/>
			<path fill="#D6562B" d="M654.144,136.229h-22.951c-1.244,0-2.262-1.017-2.264-2.261h-10.773v11.157
				c0,3.457,2.792,6.248,6.248,6.248h69.003c3.457,0,6.248-2.792,6.248-6.248v-11.157h-43.248
				C656.405,135.212,655.388,136.229,654.144,136.229z"/>
			<path fill="#7F2E19" d="M631.192,136.229h22.951c1.244,0,2.262-1.017,2.263-2.261c0-0.001,0-0.002,0-0.003
				c0-1.245-1.019-2.264-2.264-2.264h-22.951c-1.245,0-2.264,1.019-2.264,2.264c0,0.001,0,0.002,0,0.003
				C628.931,135.212,629.948,136.229,631.192,136.229z"/>
			<path fill="#FFFFFF" d="M644.073,101.724c-4.892,0-9.784,0-14.676,0c-2.411,0-2.415,3.747,0,3.747c4.892,0,9.784,0,14.676,0
				C646.484,105.471,646.488,101.724,644.073,101.724z"/>
			<path fill="#FFFFFF" d="M653.441,101.724c-2.411,0-2.415,3.747,0,3.747C655.852,105.471,655.856,101.724,653.441,101.724z"/>
		</g>
		<g>
			<path fill="#ED7C31" d="M497.499,600.565v38.801h10.773c0-0.001,0-0.002,0-0.003c0-1.245,1.019-2.264,2.264-2.264h22.951
				c1.245,0,2.264,1.019,2.264,2.264c0,0.001,0,0.002,0,0.003h43.248v-38.801h-26.542H497.499z M523.417,610.869
				c-4.892,0-9.784,0-14.676,0c-2.415,0-2.411-3.747,0-3.747c4.892,0,9.784,0,14.676,0
				C525.832,607.122,525.828,610.869,523.417,610.869z M532.785,610.869c-2.415,0-2.411-3.747,0-3.747
				C535.2,607.122,535.196,610.869,532.785,610.869z"/>
			<path fill="#F4BB3A" d="M576.423,591.041h-21.39c-1.423,0-2.576,1.153-2.576,2.576v6.948h26.542v-6.948
				C578.999,592.194,577.846,591.041,576.423,591.041z"/>
			<path fill="#D6562B" d="M533.487,641.627h-22.951c-1.244,0-2.262-1.017-2.264-2.261h-10.773v11.157
				c0,3.457,2.792,6.248,6.248,6.248h69.003c3.457,0,6.248-2.792,6.248-6.248v-11.157h-43.248
				C535.749,640.61,534.731,641.627,533.487,641.627z"/>
			<path fill="#7F2E19" d="M510.536,641.627h22.951c1.244,0,2.262-1.017,2.264-2.261c0-0.001,0-0.002,0-0.003
				c0-1.245-1.019-2.264-2.264-2.264h-22.951c-1.245,0-2.264,1.019-2.264,2.264c0,0.001,0,0.002,0,0.003
				C508.274,640.61,509.292,641.627,510.536,641.627z"/>
			<path fill="#FFFFFF" d="M523.417,607.122c-4.892,0-9.784,0-14.676,0c-2.411,0-2.415,3.747,0,3.747c4.892,0,9.784,0,14.676,0
				C525.828,610.869,525.832,607.122,523.417,607.122z"/>
			<path fill="#FFFFFF" d="M532.785,607.122c-2.411,0-2.415,3.747,0,3.747C535.196,610.869,535.2,607.122,532.785,607.122z"/>
		</g>
		<g>
			<path fill="#D6562B" d="M1011.512,366.499c-0.002,5.093-4.123,9.213-9.208,9.213h-4.618l9.449,11.785
				c1.454,1.814,4.38,0.785,4.38-1.539v-19.459L1011.512,366.499z"/>
			<path fill="#F4BB3A" d="M968.737,340.57c0,1.142,0.591,2.127,2.167,3.072v-5.121C969.643,338.679,968.737,339.585,968.737,340.57
				z"/>
			<path fill="#F4BB3A" d="M975.356,354.594c0-1.221-0.709-2.364-2.088-3.309v5.752
				C974.489,356.721,975.356,355.815,975.356,354.594z"/>
			<path fill="#F4BB3A" d="M963.419,358.927c-0.393-0.394-0.551-0.551-0.197-1.103l1.694-2.994c0.355-0.63,0.945-0.906,1.497-0.512
				c0.118,0.079,2.521,1.694,4.57,2.364l0.039-6.382c-3.427-1.379-7.996-4.176-7.996-8.863c0-3.939,2.796-7.288,8.036-7.8v-1.261
				c0-0.433,0.355-0.748,0.749-0.748h0.67c0.394,0,0.748,0.315,0.748,0.748v1.3c3.546,0.315,6.264,2.088,7.328,2.876
				c0.472,0.276,0.393,0.985,0.236,1.261l-2.285,3.309c-0.315,0.433-0.748,0.473-1.063,0.236c-0.276-0.118-2.363-1.576-4.215-2.324
				v5.554c3.073,1.221,8.352,3.861,8.352,9.218c0,2.063-0.839,4.001-2.342,5.472h32.275v-27.419c0-5.095-4.122-9.216-9.208-9.216
				H942.3c-5.086,0-9.208,4.122-9.208,9.216v27.419h30.709C963.65,359.149,963.522,359.03,963.419,358.927z M954.18,332.372
				c-3.079,0-6.159,0-9.238,0c-2.28,0-2.277-3.538,0-3.538c3.079,0,6.159,0,9.238,0C956.46,328.834,956.457,332.372,954.18,332.372z
				 M961.615,332.372c-2.28,0-2.277-3.538,0-3.538C963.895,328.834,963.891,332.372,961.615,332.372z"/>
			<path fill="#ED7C31" d="M1011.512,366.499c0-0.001,0-0.002,0-0.003v-7.217h-32.275c-1.454,1.423-3.531,2.41-6.087,2.643v4.097
				c0,0.394-0.355,0.709-0.749,0.709h-0.67c-0.394,0-0.749-0.315-0.749-0.709v-4.097c-3.794-0.276-6.108-1.73-7.181-2.643h-30.709
				v7.217c0,5.095,4.122,9.216,9.208,9.216h55.386h4.618C1007.389,375.712,1011.51,371.592,1011.512,366.499z M987.14,370.792
				c-2.28,0-2.276-3.538,0-3.538C989.42,367.254,989.416,370.792,987.14,370.792z M994.574,367.254c3.079,0,6.159,0,9.238,0
				c2.28,0,2.276,3.538,0,3.538c-3.079,0-6.159,0-9.238,0C992.294,370.792,992.298,367.254,994.574,367.254z"/>
			<path fill="#7F2E19" d="M981.579,353.806c0-5.358-5.279-7.997-8.352-9.218v-5.554c1.852,0.748,3.94,2.206,4.215,2.324
				c0.315,0.236,0.749,0.197,1.063-0.236l2.285-3.309c0.158-0.276,0.236-0.985-0.236-1.261c-1.064-0.788-3.782-2.561-7.328-2.876
				v-1.3c0-0.433-0.354-0.748-0.748-0.748h-0.67c-0.394,0-0.749,0.315-0.749,0.748v1.261c-5.239,0.512-8.036,3.861-8.036,7.8
				c0,4.688,4.569,7.485,7.996,8.863l-0.039,6.382c-2.048-0.67-4.451-2.285-4.57-2.364c-0.552-0.394-1.142-0.118-1.497,0.512
				l-1.694,2.994c-0.354,0.552-0.196,0.709,0.197,1.103c0.103,0.103,0.231,0.222,0.383,0.351c1.072,0.913,3.386,2.367,7.181,2.643
				v4.097c0,0.394,0.355,0.709,0.749,0.709h0.67c0.394,0,0.749-0.315,0.749-0.709v-4.097c2.556-0.232,4.633-1.22,6.087-2.643
				C980.741,357.807,981.579,355.869,981.579,353.806z M970.904,343.643c-1.576-0.945-2.167-1.93-2.167-3.072
				c0-0.985,0.906-1.891,2.167-2.049V343.643z M973.267,351.285c1.379,0.945,2.088,2.088,2.088,3.309
				c0,1.221-0.867,2.127-2.088,2.442V351.285z"/>
			<path fill="#FFFFFF" d="M954.18,328.834c-3.079,0-6.159,0-9.238,0c-2.277,0-2.28,3.538,0,3.538c3.079,0,6.159,0,9.238,0
				C956.457,332.372,956.46,328.834,954.18,328.834z"/>
			<path fill="#FFFFFF" d="M961.615,328.834c-2.277,0-2.28,3.538,0,3.538C963.891,332.372,963.895,328.834,961.615,328.834z"/>
			<path fill="#FFFFFF" d="M1003.812,370.792c2.276,0,2.28-3.538,0-3.538c-3.079,0-6.159,0-9.238,0c-2.277,0-2.28,3.538,0,3.538
				C997.654,370.792,1000.733,370.792,1003.812,370.792z"/>
			<path fill="#FFFFFF" d="M987.14,367.254c-2.276,0-2.28,3.538,0,3.538C989.416,370.792,989.42,367.254,987.14,367.254z"/>
		</g>
		<g>
			<path fill="#D6562B" d="M752.631,768.479c-0.002,5.093-4.123,9.213-9.208,9.213h-4.618l9.449,11.785
				c1.454,1.814,4.38,0.785,4.38-1.539v-19.459L752.631,768.479z"/>
			<path fill="#F4BB3A" d="M709.856,742.55c0,1.142,0.591,2.127,2.167,3.072v-5.121C710.762,740.659,709.856,741.565,709.856,742.55
				z"/>
			<path fill="#F4BB3A" d="M716.474,756.574c0-1.221-0.709-2.364-2.088-3.309v5.752
				C715.608,758.701,716.474,757.795,716.474,756.574z"/>
			<path fill="#F4BB3A" d="M704.538,760.907c-0.393-0.394-0.551-0.551-0.197-1.103l1.694-2.994c0.355-0.63,0.945-0.906,1.497-0.512
				c0.118,0.079,2.521,1.694,4.57,2.364l0.039-6.382c-3.427-1.379-7.996-4.176-7.996-8.863c0-3.939,2.796-7.288,8.036-7.8v-1.261
				c0-0.433,0.355-0.748,0.749-0.748h0.67c0.394,0,0.748,0.315,0.748,0.748v1.3c3.546,0.315,6.264,2.088,7.328,2.876
				c0.472,0.276,0.393,0.985,0.236,1.261l-2.285,3.309c-0.315,0.433-0.748,0.473-1.063,0.236c-0.276-0.118-2.364-1.576-4.215-2.324
				v5.554c3.073,1.221,8.352,3.861,8.352,9.218c0,2.063-0.839,4.001-2.342,5.472h32.275v-27.419c0-5.095-4.122-9.216-9.208-9.216
				h-60.004c-5.086,0-9.208,4.122-9.208,9.216v27.419h30.709C704.769,761.129,704.641,761.01,704.538,760.907z M695.299,734.352
				c-3.079,0-6.159,0-9.238,0c-2.28,0-2.277-3.538,0-3.538c3.079,0,6.159,0,9.238,0
				C697.579,730.814,697.575,734.352,695.299,734.352z M702.734,734.352c-2.28,0-2.277-3.538,0-3.538
				C705.014,730.814,705.01,734.352,702.734,734.352z"/>
			<path fill="#ED7C31" d="M752.631,768.479c0-0.001,0-0.002,0-0.003v-7.217h-32.275c-1.454,1.423-3.531,2.41-6.087,2.643v4.097
				c0,0.394-0.355,0.709-0.749,0.709h-0.67c-0.394,0-0.749-0.315-0.749-0.709v-4.097c-3.794-0.276-6.108-1.73-7.181-2.643h-30.709
				v7.217c0,5.095,4.122,9.216,9.208,9.216h55.386h4.618C748.508,777.692,752.629,773.572,752.631,768.479z M728.259,772.772
				c-2.28,0-2.276-3.538,0-3.538C730.539,769.234,730.535,772.772,728.259,772.772z M735.693,769.234c3.079,0,6.159,0,9.238,0
				c2.28,0,2.276,3.538,0,3.538c-3.079,0-6.159,0-9.238,0C733.413,772.772,733.417,769.234,735.693,769.234z"/>
			<path fill="#7F2E19" d="M722.698,755.786c0-5.358-5.279-7.997-8.352-9.218v-5.554c1.852,0.748,3.94,2.206,4.215,2.324
				c0.315,0.236,0.749,0.197,1.063-0.236l2.285-3.309c0.158-0.276,0.236-0.985-0.236-1.261c-1.064-0.788-3.782-2.561-7.328-2.876
				v-1.3c0-0.433-0.354-0.748-0.748-0.748h-0.67c-0.394,0-0.749,0.315-0.749,0.748v1.261c-5.239,0.512-8.036,3.861-8.036,7.8
				c0,4.688,4.569,7.485,7.996,8.863l-0.039,6.382c-2.048-0.67-4.451-2.285-4.57-2.364c-0.552-0.394-1.142-0.118-1.497,0.512
				l-1.694,2.994c-0.354,0.552-0.196,0.709,0.197,1.103c0.103,0.103,0.231,0.222,0.383,0.351c1.072,0.913,3.386,2.367,7.181,2.643
				v4.097c0,0.394,0.355,0.709,0.749,0.709h0.67c0.394,0,0.749-0.315,0.749-0.709v-4.097c2.556-0.232,4.633-1.22,6.087-2.643
				C721.86,759.787,722.698,757.849,722.698,755.786z M712.023,745.623c-1.576-0.945-2.167-1.93-2.167-3.072
				c0-0.985,0.906-1.891,2.167-2.049V745.623z M714.386,753.265c1.379,0.945,2.088,2.088,2.088,3.309s-0.867,2.127-2.088,2.442
				V753.265z"/>
			<path fill="#FFFFFF" d="M695.299,730.814c-3.079,0-6.159,0-9.238,0c-2.277,0-2.28,3.538,0,3.538c3.079,0,6.159,0,9.238,0
				C697.575,734.352,697.579,730.814,695.299,730.814z"/>
			<path fill="#FFFFFF" d="M702.734,730.814c-2.277,0-2.28,3.538,0,3.538C705.01,734.352,705.014,730.814,702.734,730.814z"/>
			<path fill="#FFFFFF" d="M744.931,772.772c2.276,0,2.28-3.538,0-3.538c-3.079,0-6.159,0-9.238,0c-2.277,0-2.28,3.538,0,3.538
				C738.773,772.772,741.852,772.772,744.931,772.772z"/>
			<path fill="#FFFFFF" d="M728.259,769.234c-2.276,0-2.28,3.538,0,3.538C730.535,772.772,730.539,769.234,728.259,769.234z"/>
		</g>
		<g>
			<path fill="#D6562B" d="M470.599,398.453c-5.6-4.88-9.14-12.07-9.14-20.08c0-14.73,11.94-26.67,26.67-26.67
				c6.56,0,12.58,2.37,17.22,6.32c0.099,0.083,0.192,0.173,0.289,0.258l5.661-6.588c-6.2-5.4-14.31-8.66-23.17-8.66
				c-19.52,0-35.34,15.82-35.34,35.34c0,10.78,4.83,20.44,12.45,26.92l5.661-6.588C470.8,398.621,470.697,398.539,470.599,398.453z"
				/>
			<path fill="#B55232" d="M511.299,351.693l-5.661,6.588c5.6,4.878,9.151,12.072,9.151,20.092c0,2.808-0.437,5.514-1.243,8.056
				c1.496,0.405,1.356,2.94-0.42,2.94c-0.25,0-0.465-0.051-0.651-0.138c-0.374,0.836-0.789,1.649-1.244,2.437
				c0.959,0.139,1.805,1.137,1.141,2.196c-3.154,5.029-7.86,8.632-13.541,10.359c-0.81,0.246-1.415-0.167-1.688-0.758
				c-2.816,1.013-5.851,1.567-9.015,1.567c-6.579,0-12.588-2.381-17.229-6.328l-5.661,6.588c6.17,5.24,14.16,8.41,22.89,8.41
				c19.51,0,35.33-15.82,35.33-35.33C523.459,367.723,518.749,358.173,511.299,351.693z"/>
			<path fill="#F4BB3A" d="M484.603,369.865c0,1.129,0.584,2.102,2.141,3.036v-5.06
				C485.498,367.997,484.603,368.892,484.603,369.865z"/>
			<path fill="#F4BB3A" d="M479.348,388.003c-0.389-0.389-0.544-0.545-0.195-1.09l1.674-2.958c0.35-0.623,0.934-0.895,1.479-0.506
				c0.038,0.026,0.336,0.223,0.768,0.489l3.785-4.404l0-0.055c-3.386-1.362-7.901-4.126-7.901-8.758c0-3.892,2.763-7.201,7.94-7.707
				v-1.246c0-0.428,0.35-0.739,0.74-0.739h0.662c0.389,0,0.739,0.311,0.739,0.739v1.284c3.503,0.311,6.189,2.063,7.24,2.841
				c0.467,0.273,0.389,0.973,0.233,1.246l-2.258,3.269c-0.311,0.428-0.739,0.467-1.051,0.234c-0.272-0.117-2.335-1.557-4.165-2.296
				v5.488c0.591,0.235,1.265,0.525,1.966,0.875l14.343-16.687c-4.64-3.95-10.66-6.32-17.22-6.32c-14.73,0-26.67,11.94-26.67,26.67
				c0,8.01,3.54,15.2,9.14,20.08l8.879-10.331C479.437,388.084,479.383,388.038,479.348,388.003z M472.531,365.981
				c-1.081,1.474-1.842,3.132-2.073,4.958c-0.101,0.8-0.605,1.509-1.5,1.5c-0.737-0.008-1.603-0.69-1.5-1.5
				c0.3-2.362,1.068-4.541,2.483-6.472C471.072,362.924,473.674,364.422,472.531,365.981z M475.084,362.828c-1.934,0-1.93-3,0-3
				C477.017,359.828,477.014,362.828,475.084,362.828z"/>
			<path fill="#ED7C31" d="M491.006,374.71c2.903,1.45,6.286,3.97,6.286,8.233c0,4.009-3.192,7.551-8.329,8.018v4.048
				c0,0.389-0.35,0.701-0.74,0.701h-0.662c-0.389,0-0.74-0.311-0.74-0.701v-4.048c-4.099-0.298-6.433-1.978-7.344-2.839
				l-8.879,10.331c0.099,0.086,0.201,0.168,0.301,0.252c4.641,3.947,10.65,6.328,17.229,6.328c3.164,0,6.199-0.555,9.015-1.567
				c-0.351-0.762-0.148-1.819,0.89-2.135c4.928-1.499,9.01-4.616,11.748-8.98c0.363-0.579,0.923-0.758,1.45-0.682
				c0.455-0.788,0.87-1.601,1.244-2.437c-1.249-0.587-1.031-2.862,0.651-2.862c0.154,0,0.291,0.025,0.42,0.06
				c0.806-2.542,1.243-5.248,1.243-8.056c0-8.021-3.551-15.214-9.151-20.092c-0.097-0.085-0.19-0.174-0.289-0.258L491.006,374.71z"
				/>
			<path fill="#ED7C31" d="M486.821,385.785l0.039-6.251l-3.785,4.404C483.96,384.482,485.462,385.34,486.821,385.785z"/>
			<path fill="#ED7C31" d="M489.079,380.452v5.683c1.207-0.311,2.063-1.207,2.063-2.413S490.442,381.386,489.079,380.452z"/>
			<path fill="#7F2E19" d="M489.04,368.347c1.83,0.739,3.893,2.18,4.165,2.296c0.312,0.234,0.74,0.195,1.051-0.234l2.258-3.269
				c0.156-0.273,0.234-0.973-0.233-1.246c-1.051-0.779-3.737-2.53-7.24-2.841v-1.284c0-0.428-0.35-0.739-0.739-0.739h-0.662
				c-0.389,0-0.74,0.311-0.74,0.739v1.246c-5.177,0.506-7.94,3.815-7.94,7.707c0,4.632,4.515,7.395,7.901,8.758l0,0.055
				l-0.039,6.251c-1.36-0.445-2.862-1.303-3.747-1.847c-0.433-0.266-0.73-0.463-0.768-0.489c-0.545-0.389-1.129-0.117-1.479,0.506
				l-1.674,2.958c-0.35,0.545-0.194,0.701,0.195,1.09c0.035,0.035,0.089,0.081,0.13,0.119c0.911,0.861,3.245,2.541,7.344,2.839
				v4.048c0,0.389,0.35,0.701,0.74,0.701h0.662c0.389,0,0.74-0.311,0.74-0.701v-4.048c5.137-0.467,8.329-4.009,8.329-8.018
				c0-4.264-3.383-6.783-6.286-8.233c-0.701-0.35-1.375-0.64-1.966-0.875V368.347z M486.744,372.901
				c-1.557-0.934-2.141-1.907-2.141-3.036c0-0.973,0.896-1.869,2.141-2.024V372.901z M489.079,386.135v-5.683
				c1.363,0.934,2.063,2.063,2.063,3.27S490.286,385.824,489.079,386.135z"/>
			<path fill="#FFFFFF" d="M469.941,364.467c-1.415,1.931-2.183,4.111-2.483,6.472c-0.103,0.81,0.763,1.492,1.5,1.5
				c0.895,0.009,1.399-0.7,1.5-1.5c0.232-1.827,0.993-3.484,2.073-4.958C473.674,364.422,471.072,362.924,469.941,364.467z"/>
			<path fill="#FFFFFF" d="M475.084,359.828c-1.93,0-1.934,3,0,3C477.014,362.828,477.017,359.828,475.084,359.828z"/>
			<path fill="#FFFFFF" d="M509.781,392.35c-2.738,4.365-6.819,7.482-11.748,8.98c-1.038,0.316-1.241,1.373-0.89,2.135
				c0.272,0.591,0.878,1.004,1.688,0.758c5.68-1.727,10.386-5.33,13.541-10.359c0.664-1.059-0.182-2.057-1.141-2.196
				C510.705,391.592,510.145,391.771,509.781,392.35z"/>
			<path fill="#FFFFFF" d="M512.475,389.231c0.185,0.087,0.401,0.138,0.651,0.138c1.777,0,1.916-2.536,0.42-2.94
				c-0.129-0.035-0.267-0.06-0.42-0.06C511.444,386.37,511.226,388.644,512.475,389.231z"/>
		</g>
		<g>
			<path fill="#D6562B" d="M987.996,640.05c-5.6-4.88-9.14-12.07-9.14-20.08c0-14.73,11.94-26.67,26.67-26.67
				c6.56,0,12.58,2.37,17.22,6.32c0.099,0.083,0.192,0.173,0.289,0.258l5.661-6.588c-6.2-5.4-14.31-8.66-23.17-8.66
				c-19.52,0-35.34,15.82-35.34,35.34c0,10.78,4.83,20.44,12.45,26.92l5.661-6.588C988.197,640.218,988.095,640.137,987.996,640.05z
				"/>
			<path fill="#B55232" d="M1028.696,593.29l-5.661,6.588c5.6,4.878,9.151,12.072,9.151,20.092c0,2.808-0.437,5.514-1.243,8.056
				c1.496,0.405,1.356,2.94-0.42,2.94c-0.25,0-0.465-0.051-0.651-0.138c-0.374,0.836-0.789,1.649-1.244,2.437
				c0.959,0.139,1.805,1.137,1.141,2.196c-3.154,5.029-7.86,8.632-13.541,10.359c-0.81,0.246-1.415-0.167-1.688-0.758
				c-2.816,1.013-5.851,1.567-9.015,1.567c-6.579,0-12.588-2.381-17.229-6.328l-5.661,6.588c6.17,5.24,14.16,8.41,22.89,8.41
				c19.51,0,35.33-15.82,35.33-35.33C1040.856,609.32,1036.146,599.77,1028.696,593.29z"/>
			<path fill="#F4BB3A" d="M1002,611.462c0,1.129,0.584,2.102,2.141,3.036v-5.06C1002.896,609.594,1002,610.489,1002,611.462z"/>
			<path fill="#F4BB3A" d="M996.745,629.601c-0.389-0.389-0.544-0.545-0.195-1.09l1.674-2.958c0.35-0.623,0.934-0.895,1.479-0.506
				c0.038,0.026,0.336,0.223,0.768,0.489l3.785-4.404l0-0.055c-3.386-1.362-7.901-4.126-7.901-8.758c0-3.892,2.763-7.201,7.94-7.707
				v-1.246c0-0.428,0.35-0.739,0.74-0.739h0.662c0.389,0,0.739,0.311,0.739,0.739v1.284c3.503,0.311,6.189,2.063,7.24,2.841
				c0.467,0.273,0.389,0.973,0.233,1.246l-2.258,3.269c-0.311,0.428-0.739,0.467-1.051,0.234c-0.272-0.117-2.335-1.557-4.165-2.296
				v5.488c0.591,0.235,1.265,0.525,1.966,0.875l14.343-16.687c-4.64-3.95-10.66-6.32-17.22-6.32c-14.73,0-26.67,11.94-26.67,26.67
				c0,8.01,3.54,15.2,9.14,20.08l8.879-10.331C996.835,629.681,996.78,629.635,996.745,629.601z M989.929,607.578
				c-1.081,1.474-1.842,3.132-2.073,4.958c-0.101,0.8-0.605,1.509-1.5,1.5c-0.737-0.008-1.603-0.69-1.5-1.5
				c0.3-2.362,1.068-4.541,2.483-6.472C988.469,604.521,991.071,606.02,989.929,607.578z M992.481,604.425c-1.934,0-1.93-3,0-3
				C994.415,601.425,994.411,604.425,992.481,604.425z"/>
			<path fill="#ED7C31" d="M1008.403,616.307c2.903,1.45,6.286,3.97,6.286,8.233c0,4.009-3.192,7.551-8.329,8.018v4.048
				c0,0.389-0.35,0.701-0.74,0.701h-0.662c-0.389,0-0.74-0.311-0.74-0.701v-4.048c-4.099-0.298-6.433-1.978-7.344-2.839
				l-8.879,10.331c0.099,0.086,0.201,0.168,0.301,0.252c4.641,3.947,10.65,6.328,17.229,6.328c3.164,0,6.199-0.555,9.015-1.567
				c-0.351-0.762-0.148-1.819,0.89-2.135c4.928-1.499,9.01-4.616,11.748-8.98c0.363-0.579,0.923-0.758,1.45-0.682
				c0.455-0.788,0.87-1.601,1.244-2.437c-1.249-0.587-1.031-2.862,0.651-2.862c0.154,0,0.291,0.025,0.42,0.06
				c0.806-2.542,1.243-5.248,1.243-8.056c0-8.021-3.551-15.214-9.151-20.092c-0.097-0.085-0.19-0.174-0.289-0.258L1008.403,616.307z
				"/>
			<path fill="#ED7C31" d="M1004.219,627.382l0.039-6.251l-3.785,4.404C1001.357,626.079,1002.859,626.937,1004.219,627.382z"/>
			<path fill="#ED7C31" d="M1006.476,622.049v5.683c1.207-0.311,2.063-1.207,2.063-2.413S1007.839,622.983,1006.476,622.049z"/>
			<path fill="#7F2E19" d="M1006.437,609.944c1.83,0.739,3.893,2.18,4.165,2.296c0.312,0.234,0.74,0.195,1.051-0.234l2.258-3.269
				c0.156-0.273,0.234-0.973-0.233-1.246c-1.051-0.779-3.737-2.53-7.24-2.841v-1.284c0-0.428-0.35-0.739-0.739-0.739h-0.662
				c-0.389,0-0.74,0.311-0.74,0.739v1.246c-5.177,0.506-7.94,3.815-7.94,7.707c0,4.632,4.515,7.395,7.901,8.758l0,0.055
				l-0.039,6.251c-1.36-0.445-2.862-1.303-3.747-1.847c-0.433-0.266-0.73-0.463-0.768-0.489c-0.545-0.389-1.129-0.117-1.479,0.506
				l-1.674,2.958c-0.35,0.545-0.194,0.701,0.195,1.09c0.035,0.035,0.089,0.081,0.13,0.119c0.911,0.861,3.245,2.541,7.344,2.839
				v4.048c0,0.389,0.35,0.701,0.74,0.701h0.662c0.389,0,0.74-0.311,0.74-0.701v-4.048c5.137-0.467,8.329-4.009,8.329-8.018
				c0-4.264-3.383-6.783-6.286-8.233c-0.701-0.35-1.375-0.64-1.966-0.875V609.944z M1004.141,614.498
				c-1.557-0.934-2.141-1.907-2.141-3.036c0-0.973,0.896-1.869,2.141-2.024V614.498z M1006.476,627.732v-5.683
				c1.363,0.934,2.063,2.063,2.063,3.27S1007.683,627.421,1006.476,627.732z"/>
			<path fill="#FFFFFF" d="M987.338,606.064c-1.415,1.931-2.183,4.111-2.483,6.472c-0.103,0.81,0.763,1.492,1.5,1.5
				c0.895,0.009,1.399-0.7,1.5-1.5c0.232-1.827,0.993-3.484,2.073-4.958C991.071,606.02,988.469,604.521,987.338,606.064z"/>
			<path fill="#FFFFFF" d="M992.481,601.425c-1.93,0-1.934,3,0,3C994.411,604.425,994.415,601.425,992.481,601.425z"/>
			<path fill="#FFFFFF" d="M1027.179,633.948c-2.738,4.365-6.819,7.482-11.748,8.98c-1.038,0.316-1.241,1.373-0.89,2.135
				c0.272,0.591,0.878,1.004,1.688,0.758c5.68-1.727,10.386-5.33,13.541-10.359c0.664-1.059-0.182-2.057-1.141-2.196
				C1028.102,633.189,1027.542,633.368,1027.179,633.948z"/>
			<path fill="#FFFFFF" d="M1029.872,630.828c0.185,0.087,0.401,0.138,0.651,0.138c1.777,0,1.916-2.536,0.42-2.94
				c-0.129-0.035-0.267-0.06-0.42-0.06C1028.841,627.967,1028.624,630.241,1029.872,630.828z"/>
		</g>
		<g>
			<path fill="#D6562B" d="M868.237,176.849c-5.6-4.88-9.14-12.07-9.14-20.08c0-14.73,11.94-26.67,26.67-26.67
				c6.56,0,12.58,2.37,17.22,6.32c0.099,0.083,0.192,0.173,0.289,0.258l5.661-6.588c-6.2-5.4-14.31-8.66-23.17-8.66
				c-19.52,0-35.34,15.82-35.34,35.34c0,10.78,4.83,20.44,12.45,26.92l5.661-6.588C868.439,177.016,868.336,176.935,868.237,176.849
				z"/>
			<path fill="#B55232" d="M908.938,130.089l-5.661,6.588c5.6,4.878,9.151,12.072,9.151,20.092c0,2.808-0.437,5.514-1.243,8.056
				c1.496,0.405,1.356,2.94-0.42,2.94c-0.25,0-0.465-0.051-0.651-0.138c-0.374,0.836-0.789,1.649-1.244,2.437
				c0.959,0.139,1.805,1.137,1.141,2.196c-3.154,5.029-7.86,8.632-13.541,10.359c-0.81,0.246-1.415-0.167-1.688-0.758
				c-2.816,1.013-5.851,1.567-9.015,1.567c-6.579,0-12.588-2.381-17.229-6.328l-5.661,6.588c6.17,5.24,14.16,8.41,22.89,8.41
				c19.51,0,35.33-15.82,35.33-35.33C921.097,146.119,916.388,136.569,908.938,130.089z"/>
			<path fill="#F4BB3A" d="M882.242,148.261c0,1.129,0.584,2.102,2.141,3.036v-5.06
				C883.137,146.392,882.242,147.287,882.242,148.261z"/>
			<path fill="#F4BB3A" d="M876.987,166.399c-0.389-0.389-0.544-0.545-0.195-1.09l1.674-2.958c0.35-0.623,0.934-0.895,1.479-0.506
				c0.038,0.026,0.336,0.223,0.768,0.489l3.785-4.404l0-0.055c-3.386-1.362-7.901-4.126-7.901-8.758c0-3.892,2.763-7.201,7.94-7.707
				v-1.246c0-0.428,0.35-0.739,0.74-0.739h0.662c0.389,0,0.739,0.311,0.739,0.739v1.284c3.503,0.311,6.189,2.063,7.24,2.841
				c0.467,0.273,0.389,0.973,0.233,1.246l-2.258,3.269c-0.311,0.428-0.739,0.467-1.051,0.234c-0.272-0.117-2.335-1.557-4.165-2.296
				v5.488c0.591,0.235,1.265,0.525,1.966,0.875l14.343-16.687c-4.64-3.95-10.66-6.32-17.22-6.32c-14.73,0-26.67,11.94-26.67,26.67
				c0,8.01,3.54,15.2,9.14,20.08l8.879-10.331C877.076,166.48,877.022,166.434,876.987,166.399z M870.17,144.377
				c-1.081,1.474-1.842,3.132-2.073,4.958c-0.101,0.8-0.605,1.509-1.5,1.5c-0.737-0.008-1.603-0.69-1.5-1.5
				c0.3-2.362,1.068-4.541,2.483-6.472C868.711,141.32,871.313,142.818,870.17,144.377z M872.722,141.224c-1.934,0-1.93-3,0-3
				C874.656,138.224,874.653,141.224,872.722,141.224z"/>
			<path fill="#ED7C31" d="M888.645,153.106c2.903,1.45,6.286,3.97,6.286,8.233c0,4.009-3.192,7.551-8.329,8.018v4.048
				c0,0.389-0.35,0.701-0.74,0.701H885.2c-0.389,0-0.74-0.311-0.74-0.701v-4.048c-4.099-0.298-6.433-1.978-7.344-2.839
				l-8.879,10.331c0.099,0.086,0.201,0.168,0.301,0.252c4.641,3.947,10.65,6.328,17.229,6.328c3.164,0,6.199-0.555,9.015-1.567
				c-0.351-0.762-0.148-1.819,0.89-2.135c4.928-1.499,9.01-4.616,11.748-8.98c0.363-0.579,0.923-0.758,1.45-0.682
				c0.455-0.788,0.87-1.601,1.244-2.437c-1.249-0.587-1.031-2.862,0.651-2.862c0.154,0,0.291,0.025,0.42,0.06
				c0.806-2.542,1.243-5.248,1.243-8.056c0-8.021-3.551-15.214-9.151-20.092c-0.097-0.085-0.19-0.174-0.289-0.258L888.645,153.106z"
				/>
			<path fill="#ED7C31" d="M884.46,164.18l0.039-6.251l-3.785,4.404C881.599,162.878,883.101,163.736,884.46,164.18z"/>
			<path fill="#ED7C31" d="M886.718,158.848v5.683c1.207-0.311,2.063-1.207,2.063-2.413S888.08,159.782,886.718,158.848z"/>
			<path fill="#7F2E19" d="M886.679,146.742c1.83,0.739,3.893,2.18,4.165,2.296c0.312,0.234,0.74,0.195,1.051-0.234l2.258-3.269
				c0.156-0.273,0.234-0.973-0.233-1.246c-1.051-0.779-3.737-2.53-7.24-2.841v-1.284c0-0.428-0.35-0.739-0.739-0.739h-0.662
				c-0.389,0-0.74,0.311-0.74,0.739v1.246c-5.177,0.506-7.94,3.815-7.94,7.707c0,4.632,4.515,7.395,7.901,8.758l0,0.055
				l-0.039,6.251c-1.36-0.445-2.862-1.303-3.747-1.847c-0.433-0.266-0.73-0.463-0.768-0.489c-0.545-0.389-1.129-0.117-1.479,0.506
				l-1.674,2.958c-0.35,0.545-0.194,0.701,0.195,1.09c0.035,0.035,0.089,0.081,0.13,0.119c0.911,0.861,3.245,2.541,7.344,2.839
				v4.048c0,0.389,0.35,0.701,0.74,0.701h0.662c0.389,0,0.74-0.311,0.74-0.701v-4.048c5.137-0.467,8.329-4.009,8.329-8.018
				c0-4.264-3.383-6.783-6.286-8.233c-0.701-0.35-1.375-0.64-1.966-0.875V146.742z M884.382,151.296
				c-1.557-0.934-2.141-1.907-2.141-3.036c0-0.973,0.896-1.869,2.141-2.024V151.296z M886.718,164.531v-5.683
				c1.363,0.934,2.063,2.063,2.063,3.27S887.925,164.219,886.718,164.531z"/>
			<path fill="#FFFFFF" d="M867.58,142.862c-1.415,1.931-2.183,4.111-2.483,6.472c-0.103,0.81,0.763,1.492,1.5,1.5
				c0.895,0.009,1.399-0.7,1.5-1.5c0.232-1.827,0.993-3.484,2.073-4.958C871.313,142.818,868.711,141.32,867.58,142.862z"/>
			<path fill="#FFFFFF" d="M872.722,138.224c-1.93,0-1.934,3,0,3C874.653,141.224,874.656,138.224,872.722,138.224z"/>
			<path fill="#FFFFFF" d="M907.42,170.746c-2.738,4.365-6.819,7.482-11.748,8.98c-1.038,0.316-1.241,1.373-0.89,2.135
				c0.272,0.591,0.878,1.004,1.688,0.758c5.68-1.727,10.386-5.33,13.541-10.359c0.664-1.059-0.182-2.057-1.141-2.196
				C908.344,169.988,907.784,170.167,907.42,170.746z"/>
			<path fill="#FFFFFF" d="M910.114,167.627c0.185,0.087,0.401,0.138,0.651,0.138c1.777,0,1.916-2.536,0.42-2.94
				c-0.129-0.035-0.267-0.06-0.42-0.06C909.083,164.765,908.865,167.04,910.114,167.627z"/>
		</g>
		<g>
			<path fill="#F4BB3A" d="M510.759,154.68v-4.297c0-2.099-1.702-3.801-3.801-3.801h-19.665v8.097H510.759z"/>
			<path fill="#F4BB3A" d="M477.708,146.582h-19.665c-2.099,0-3.801,1.702-3.801,3.801v4.297h23.466V146.582z"/>
			<rect x="454.242" y="154.68" fill="#ED7C31" width="23.466" height="4.939"/>
			<rect x="487.292" y="154.68" fill="#ED7C31" width="23.466" height="4.939"/>
			<path fill="#F4BB3A" d="M466.714,183.96c-0.589-0.115-1.13,0.158-1.276,0.601c-0.169,0.513-0.048,1.043,0.52,1.7L466.714,183.96z
				"/>
			<path fill="#F4BB3A" d="M451.981,201.506c0.291,1.401,1.216,2.366,2.247,2.366h56.544c1.031,0,1.957-0.965,2.247-2.366
				l7.007-33.051h-75.052L451.981,201.506z M512.742,174.345c2.556,0,2.552,3.966,0,3.966
				C510.185,178.311,510.19,174.345,512.742,174.345z M505.021,193.311c0.947-3.302,1.894-6.604,2.841-9.906
				c0.704-2.453,4.529-1.404,3.825,1.054c-0.947,3.302-1.894,6.604-2.842,9.906C508.142,196.818,504.316,195.769,505.021,193.311z
				 M460.412,191.5l1.203-1.095c0.252-0.231,0.558-0.268,0.748-0.009c0.041,0.053,0.883,1.133,1.704,1.737l0.96-2.862
				c-1.336-1.125-2.977-3.057-2.285-5.163c0.582-1.77,2.333-2.862,4.762-2.318l0.186-0.566c0.064-0.195,0.27-0.284,0.447-0.226
				l0.301,0.099c0.177,0.058,0.29,0.252,0.226,0.447l-0.192,0.584c1.547,0.665,2.506,1.863,2.868,2.374
				c0.172,0.194,0.031,0.501-0.08,0.601l-1.515,1.15c-0.205,0.148-0.406,0.102-0.513-0.051c-0.107-0.094-0.829-1.057-1.551-1.667
				l-0.82,2.496c1.2,1.003,3.183,2.968,2.392,5.375c-0.599,1.823-2.58,2.957-4.986,2.402l-0.605,1.841
				c-0.058,0.177-0.264,0.266-0.441,0.208l-0.301-0.099c-0.177-0.058-0.29-0.252-0.232-0.429l0.605-1.841
				c-1.9-0.781-2.707-1.968-2.956-2.462C460.219,191.789,460.172,191.695,460.412,191.5z"/>
			<path fill="#F4BB3A" d="M466.341,191.84c0.18-0.549,0.03-1.167-0.45-1.795l-0.849,2.584
				C465.638,192.668,466.161,192.388,466.341,191.84z"/>
			<path fill="#D6562B" d="M477.708,159.619h9.585v-4.939v-8.097v-6.996c0-1.339-1.085-2.424-2.424-2.424h-4.737
				c-1.339,0-2.424,1.085-2.424,2.424v6.996v8.097V159.619z"/>
			<path fill="#B55232" d="M518.744,159.624h-72.487c-1.573,0-2.71,2.142-2.247,4.27l0.965,4.561h75.052l0.965-4.561
				C521.454,161.766,520.317,159.624,518.744,159.624z"/>
			<path fill="#7F2E19" d="M463.295,194.487l-0.605,1.841c-0.058,0.177,0.055,0.371,0.232,0.429l0.301,0.099
				c0.177,0.058,0.383-0.031,0.441-0.208l0.605-1.841c2.406,0.555,4.387-0.579,4.986-2.402c0.791-2.407-1.191-4.373-2.392-5.375
				l0.82-2.496c0.722,0.61,1.445,1.573,1.551,1.667c0.107,0.153,0.307,0.199,0.513,0.051l1.515-1.15
				c0.112-0.101,0.252-0.408,0.08-0.601c-0.362-0.511-1.321-1.709-2.868-2.374l0.192-0.584c0.064-0.195-0.049-0.389-0.226-0.447
				l-0.301-0.099c-0.177-0.058-0.383,0.031-0.447,0.226l-0.186,0.566c-2.43-0.543-4.181,0.548-4.762,2.318
				c-0.692,2.106,0.948,4.038,2.285,5.163l-0.96,2.862c-0.822-0.603-1.663-1.684-1.704-1.737c-0.19-0.258-0.496-0.222-0.748,0.009
				l-1.203,1.095c-0.24,0.196-0.193,0.29-0.074,0.525C460.588,192.518,461.394,193.705,463.295,194.487z M465.438,184.561
				c0.146-0.443,0.687-0.716,1.276-0.601l-0.756,2.301C465.389,185.604,465.269,185.074,465.438,184.561z M465.892,190.044
				c0.48,0.628,0.63,1.247,0.45,1.795c-0.18,0.549-0.703,0.828-1.299,0.789L465.892,190.044z"/>
			<path fill="#FFFFFF" d="M508.846,194.365c0.947-3.302,1.894-6.604,2.842-9.906c0.705-2.458-3.121-3.507-3.825-1.054
				c-0.947,3.302-1.894,6.604-2.841,9.906C504.316,195.769,508.142,196.818,508.846,194.365z"/>
			<path fill="#FFFFFF" d="M512.742,178.311c2.552,0,2.556-3.966,0-3.966C510.19,174.345,510.185,178.311,512.742,178.311z"/>
		</g>
		<g>
			<g>
				
					<line fill="none" stroke="#F4BB3A" stroke-width="4" stroke-miterlimit="10" x1="519.093" y1="338.542" x2="523.367" y2="334.332"/>
				
					<line fill="none" stroke="#F4BB3A" stroke-width="4" stroke-miterlimit="10" stroke-dasharray="11.7121,11.7121" x1="531.711" y1="326.112" x2="610.976" y2="248.029"/>
				
					<line fill="none" stroke="#F4BB3A" stroke-width="4" stroke-miterlimit="10" x1="615.148" y1="243.92" x2="619.423" y2="239.709"/>
			</g>
		</g>
		<circle fill="#F4BB3A" cx="638.339" cy="224.542" r="9.583"/>
		<circle fill="#F4BB3A" cx="826.258" cy="272.876" r="9.583"/>
		<circle fill="#F4BB3A" cx="1003.071" cy="214.959" r="9.583"/>
		<circle fill="#F4BB3A" cx="368.727" cy="426.826" r="9.583"/>
		<circle fill="#F4BB3A" cx="444.974" cy="691.876" r="9.583"/>
		<circle fill="#F4BB3A" cx="921.097" cy="565.089" r="9.583"/>
		
			<line fill="none" stroke="#F4BB3A" stroke-width="4" stroke-miterlimit="10" stroke-dasharray="12" x1="613.423" y1="214.959" x2="534.052" y2="200.497"/>
		
			<line fill="none" stroke="#F4BB3A" stroke-width="4" stroke-miterlimit="10" stroke-dasharray="12" x1="645.007" y1="202.709" x2="651.676" y2="162.31"/>
		
			<line fill="none" stroke="#F4BB3A" stroke-width="4" stroke-miterlimit="10" stroke-dasharray="12" x1="719.423" y1="124.209" x2="829.007" y2="142.214"/>
		
			<line fill="none" stroke="#F4BB3A" stroke-width="4" stroke-miterlimit="10" stroke-dasharray="12" x1="601.423" y1="120.209" x2="523.459" y2="142.671"/>
		
			<line fill="none" stroke="#F4BB3A" stroke-width="4" stroke-miterlimit="10" stroke-dasharray="12" x1="454.242" y1="224.542" x2="467.45" y2="321.209"/>
		
			<line fill="none" stroke="#F4BB3A" stroke-width="4" stroke-miterlimit="10" stroke-dasharray="12" x1="430.423" y1="207.728" x2="372.423" y2="413.703"/>
		
			<line fill="none" stroke="#F4BB3A" stroke-width="4" stroke-miterlimit="10" stroke-dasharray="12" x1="492.142" y1="428.826" x2="521.026" y2="579.918"/>
		
			<line fill="none" stroke="#F4BB3A" stroke-width="4" stroke-miterlimit="10" stroke-dasharray="12" x1="378.311" y1="453.209" x2="478.959" y2="586.542"/>
		
			<line fill="none" stroke="#F4BB3A" stroke-width="4" stroke-miterlimit="10" stroke-dasharray="12" x1="389.756" y1="421.209" x2="444.423" y2="398.453"/>
		
			<line fill="none" stroke="#F4BB3A" stroke-width="4" stroke-miterlimit="10" stroke-dasharray="12" x1="862.878" y1="207.728" x2="844.423" y2="245.368"/>
		
			<line fill="none" stroke="#F4BB3A" stroke-width="4" stroke-miterlimit="10" stroke-dasharray="12" x1="902.435" y1="207.728" x2="947.089" y2="314.542"/>
		
			<line fill="none" stroke="#F4BB3A" stroke-width="4" stroke-miterlimit="10" stroke-dasharray="12" x1="959.294" y1="405.293" x2="927.172" y2="539.676"/>
		
			<line fill="none" stroke="#F4BB3A" stroke-width="4" stroke-miterlimit="10" stroke-dasharray="12" x1="844.423" y1="295.876" x2="921.097" y2="340.961"/>
		
			<line fill="none" stroke="#F4BB3A" stroke-width="4" stroke-miterlimit="10" stroke-dasharray="12" x1="985.431" y1="300.542" x2="1004.257" y2="234.126"/>
		
			<line fill="none" stroke="#F4BB3A" stroke-width="4" stroke-miterlimit="10" stroke-dasharray="12" x1="835.841" y1="310.716" x2="911.514" y2="534.209"/>
		
			<line fill="none" stroke="#F4BB3A" stroke-width="4" stroke-miterlimit="10" stroke-dasharray="12" x1="939.756" y1="163.518" x2="988.849" y2="192.099"/>
		
			<line fill="none" stroke="#F4BB3A" stroke-width="4" stroke-miterlimit="10" stroke-dasharray="12" x1="673.113" y1="214.959" x2="826.258" y2="180.979"/>
		
			<line fill="none" stroke="#F4BB3A" stroke-width="4" stroke-miterlimit="10" stroke-dasharray="12" x1="806.423" y1="244.209" x2="700.345" y2="159.619"/>
		
			<line fill="none" stroke="#F4BB3A" stroke-width="4" stroke-miterlimit="10" stroke-dasharray="12" x1="538.249" y1="383.294" x2="573.737" y2="391.652"/>
		
			<line fill="none" stroke="#F4BB3A" stroke-width="4" stroke-miterlimit="10" stroke-dasharray="12" x1="582.423" y1="680.288" x2="645.883" y2="723.786"/>
		
			<line fill="none" stroke="#F4BB3A" stroke-width="4" stroke-miterlimit="10" stroke-dasharray="12" x1="778.923" y1="734.352" x2="911.514" y2="591.041"/>
		
			<line fill="none" stroke="#F4BB3A" stroke-width="4" stroke-miterlimit="10" stroke-dasharray="12" x1="937.756" y1="584.63" x2="955.089" y2="595.803"/>
		
			<line fill="none" stroke="#F4BB3A" stroke-width="4" stroke-miterlimit="10" stroke-dasharray="12" x1="993.93" y1="403.209" x2="1002" y2="565.089"/>
		
			<line fill="none" stroke="#F4BB3A" stroke-width="4" stroke-miterlimit="10" stroke-dasharray="12" x1="778.923" y1="768.479" x2="970.186" y2="662.696"/>
		
			<line fill="none" stroke="#F4BB3A" stroke-width="4" stroke-miterlimit="10" stroke-dasharray="12" x1="469.423" y1="682.292" x2="484.423" y2="669.209"/>
		
			<line fill="none" stroke="#F4BB3A" stroke-width="4" stroke-miterlimit="10" stroke-dasharray="12" x1="473.635" y1="715.588" x2="647.923" y2="768.479"/>
		
			<line fill="none" stroke="#F4BB3A" stroke-width="4" stroke-miterlimit="10" stroke-dasharray="12" x1="417.089" y1="662.696" x2="368.727" y2="472.485"/>
	</g>
	<g>
		<path fill="#F4BB3A" d="M454.224,889.065c0-0.416,0.333-0.79,0.79-0.79h17.208c0.457,0,0.79,0.374,0.79,0.79v4.53
			c0,0.416-0.333,0.79-0.79,0.79h-11.514v5.154h9.477c0.416,0,0.79,0.374,0.79,0.789v4.531c0,0.457-0.374,0.789-0.79,0.789h-9.477
			v5.611h11.514c0.457,0,0.79,0.374,0.79,0.79v4.53c0,0.416-0.333,0.79-0.79,0.79h-17.208c-0.457,0-0.79-0.374-0.79-0.79V889.065z"
			/>
		<path fill="#F4BB3A" d="M486.483,894.386h-5.944c-0.457,0-0.79-0.374-0.79-0.79v-4.53c0-0.416,0.333-0.79,0.79-0.79h18.455
			c0.457,0,0.79,0.374,0.79,0.79v4.53c0,0.416-0.333,0.79-0.79,0.79h-5.944v22.195c0,0.416-0.374,0.79-0.79,0.79h-4.988
			c-0.416,0-0.79-0.374-0.79-0.79V894.386z"/>
		<path fill="#F4BB3A" d="M508.101,889.065c0-0.416,0.374-0.79,0.79-0.79h4.946c0.457,0,0.79,0.374,0.79,0.79v10.475h11.888v-10.475
			c0-0.416,0.333-0.79,0.79-0.79h4.946c0.416,0,0.79,0.374,0.79,0.79v27.516c0,0.416-0.374,0.79-0.79,0.79h-4.946
			c-0.458,0-0.79-0.374-0.79-0.79v-10.932h-11.888v10.932c0,0.416-0.333,0.79-0.79,0.79h-4.946c-0.416,0-0.79-0.374-0.79-0.79
			V889.065z"/>
		<path fill="#F4BB3A" d="M544.351,889.065c0-0.416,0.333-0.79,0.79-0.79h17.208c0.457,0,0.79,0.374,0.79,0.79v4.53
			c0,0.416-0.333,0.79-0.79,0.79h-11.514v5.154h9.477c0.416,0,0.79,0.374,0.79,0.789v4.531c0,0.457-0.374,0.789-0.79,0.789h-9.477
			v5.611h11.514c0.457,0,0.79,0.374,0.79,0.79v4.53c0,0.416-0.333,0.79-0.79,0.79H545.14c-0.457,0-0.79-0.374-0.79-0.79V889.065z"/>
		<path fill="#F4BB3A" d="M572.869,889.065c0-0.416,0.333-0.79,0.79-0.79h12.428c4.988,0,9.062,4.032,9.062,8.979
			c0,3.824-2.536,6.899-6.152,8.354l5.694,10.558c0.291,0.54,0,1.205-0.707,1.205h-5.528c-0.333,0-0.582-0.208-0.665-0.374
			l-5.528-11.015h-2.868v10.599c0,0.416-0.374,0.79-0.79,0.79h-4.946c-0.457,0-0.79-0.374-0.79-0.79V889.065z M585.546,900.703
			c1.704,0,3.159-1.579,3.159-3.325c0-1.745-1.455-3.158-3.159-3.158h-6.152v6.483H585.546z"/>
		<path fill="#F4BB3A" d="M604.879,889.065c0-0.416,0.333-0.79,0.79-0.79h17.208c0.457,0,0.79,0.374,0.79,0.79v4.53
			c0,0.416-0.333,0.79-0.79,0.79h-11.514v5.154h9.477c0.416,0,0.79,0.374,0.79,0.789v4.531c0,0.457-0.374,0.789-0.79,0.789h-9.477
			v5.611h11.514c0.457,0,0.79,0.374,0.79,0.79v4.53c0,0.416-0.333,0.79-0.79,0.79h-17.208c-0.457,0-0.79-0.374-0.79-0.79V889.065z"
			/>
		<path fill="#F4BB3A" d="M632.982,889.065c0-0.416,0.374-0.79,0.79-0.79h5.112c0.458,0,0.79,0.374,0.79,0.79v16.834
			c0,2.909,2.161,5.237,5.112,5.237c2.993,0,5.196-2.328,5.196-5.237v-16.834c0-0.416,0.333-0.79,0.79-0.79h5.112
			c0.416,0,0.79,0.374,0.79,0.79v17.166c0,6.318-5.32,11.556-11.888,11.556c-6.526,0-11.804-5.237-11.804-11.556V889.065z"/>
		<path fill="#F4BB3A" d="M670.395,888.525c0.042-0.374,0.416-0.665,0.749-0.665h0.665c0.208,0,0.582,0.166,0.707,0.415
			l9.643,17.956h0.083l9.643-17.956c0.125-0.249,0.499-0.415,0.707-0.415h0.665c0.333,0,0.707,0.291,0.748,0.665l4.697,27.932
			c0.083,0.54-0.291,0.914-0.79,0.914h-4.905c-0.374,0-0.748-0.332-0.79-0.665l-1.871-12.844h-0.083l-6.983,13.467
			c-0.125,0.25-0.499,0.458-0.707,0.458h-0.748c-0.25,0-0.582-0.208-0.707-0.458l-7.025-13.467h-0.083l-1.829,12.844
			c-0.042,0.333-0.374,0.665-0.79,0.665h-4.904c-0.499,0-0.873-0.374-0.79-0.914L670.395,888.525z"/>
		<path fill="#ED7C31" d="M721.486,888.608c0-0.416,0.374-0.748,0.79-0.748h1.039l16.584,15.961h0.042v-14.756
			c0-0.416,0.333-0.79,0.79-0.79h4.987c0.416,0,0.79,0.374,0.79,0.79v27.974c0,0.415-0.374,0.748-0.79,0.748h-0.665
			c-0.125,0-0.457-0.125-0.54-0.208l-16.418-16.501h-0.042v15.503c0,0.416-0.333,0.79-0.79,0.79h-4.946
			c-0.416,0-0.79-0.374-0.79-0.79L721.486,888.608z"/>
		<path fill="#ED7C31" d="M757.82,889.065c0-0.416,0.333-0.79,0.79-0.79h17.208c0.458,0,0.79,0.374,0.79,0.79v4.53
			c0,0.416-0.332,0.79-0.79,0.79h-11.513v5.154h9.477c0.416,0,0.79,0.374,0.79,0.789v4.531c0,0.457-0.374,0.789-0.79,0.789h-9.477
			v5.611h11.513c0.458,0,0.79,0.374,0.79,0.79v4.53c0,0.416-0.332,0.79-0.79,0.79h-17.208c-0.457,0-0.79-0.374-0.79-0.79V889.065z"
			/>
		<path fill="#ED7C31" d="M790.078,894.386h-5.943c-0.458,0-0.79-0.374-0.79-0.79v-4.53c0-0.416,0.332-0.79,0.79-0.79h18.454
			c0.457,0,0.79,0.374,0.79,0.79v4.53c0,0.416-0.333,0.79-0.79,0.79h-5.943v22.195c0,0.416-0.374,0.79-0.79,0.79h-4.987
			c-0.416,0-0.79-0.374-0.79-0.79V894.386z"/>
		<path fill="#ED7C31" d="M809.118,889.273c-0.166-0.582,0.167-0.998,0.749-0.998h4.862c0.333,0,0.665,0.291,0.749,0.582
			l3.574,14.091h0.166l6.442-14.631c0.125-0.25,0.374-0.457,0.707-0.457h0.748c0.374,0,0.623,0.207,0.707,0.457l6.442,14.631h0.166
			l3.574-14.091c0.084-0.291,0.416-0.582,0.749-0.582h4.862c0.582,0,0.915,0.416,0.749,0.998l-7.856,27.932
			c-0.083,0.332-0.415,0.582-0.748,0.582h-0.665c-0.291,0-0.582-0.208-0.707-0.458l-7.605-17h-0.125l-7.564,17
			c-0.125,0.25-0.416,0.458-0.707,0.458h-0.665c-0.333,0-0.665-0.25-0.748-0.582L809.118,889.273z"/>
		<path fill="#ED7C31" d="M865.696,887.86c8.313,0,14.963,6.691,14.963,15.005c0,8.313-6.65,14.922-14.963,14.922
			c-8.313,0-14.922-6.609-14.922-14.922C850.775,894.552,857.383,887.86,865.696,887.86z M865.696,911.137
			c4.572,0,8.313-3.741,8.313-8.271c0-4.572-3.74-8.354-8.313-8.354c-4.531,0-8.271,3.782-8.271,8.354
			C857.425,907.396,861.165,911.137,865.696,911.137z"/>
		<path fill="#ED7C31" d="M889.85,889.065c0-0.416,0.333-0.79,0.79-0.79h12.428c4.988,0,9.062,4.032,9.062,8.979
			c0,3.824-2.535,6.899-6.151,8.354l5.694,10.558c0.291,0.54,0,1.205-0.707,1.205h-5.528c-0.332,0-0.582-0.208-0.665-0.374
			l-5.528-11.015h-2.867v10.599c0,0.416-0.374,0.79-0.79,0.79h-4.946c-0.457,0-0.79-0.374-0.79-0.79V889.065z M902.528,900.703
			c1.704,0,3.159-1.579,3.159-3.325c0-1.745-1.455-3.158-3.159-3.158h-6.151v6.483H902.528z"/>
		<path fill="#ED7C31" d="M921.86,889.273c0-0.541,0.416-0.998,0.998-0.998h4.863c0.54,0,0.997,0.457,0.997,0.998v10.932
			l9.228-11.514c0.166-0.208,0.54-0.416,0.79-0.416h5.237c0.789,0,1.205,0.915,0.748,1.538l-9.727,12.179l10.6,13.8
			c0.457,0.623,0,1.537-0.79,1.537h-5.736c-0.291,0-0.665-0.166-0.748-0.29l-9.602-13.052v12.386c0,0.541-0.457,0.998-0.997,0.998
			h-4.863c-0.582,0-0.998-0.457-0.998-0.998V889.273z"/>
	</g>
</g>
</svg>
